:SAMPLES-PER-SECOND 30
:FULLY-SPECIFIED
:DEGREES
149
root  27.9009 37.2489 -2.11256 -20.6146 69.1786 -18.2706
RightUpLeg  14.6839 -14.2352 0.456418
RightLeg  25.8118 -3.71025 -2.20579
RightFoot  -25.2833 0.332262 4.06402
RightToes  0.00048216 0.542163 -0.142577
Spine  11.4931 0.65154 12.5792
Spine1  13.7643 3.88025 -5.9209
HEad  6.41118 3.41595 -5.37031
LeftShoulder1  8.44663 -13.3928 -43.4931
LeftArm  -14.9389 17.7959 -22.8229
LeftForeArm  49.1903 -77.9556 -62.3024
LeftHand  -0.25398 0.0180481 5.50724
RightShoulder  4.92924 9.43179 32.1643
RightArm  -4.2665 -12.4023 25.8985
RightForeArm  -6.86781 75.8314 60.7553
RightHand  0.841633 -10.5364 -19.6629
LeftUpLeg  -23.038 8.09738 7.53467
LeftLeg  -5.60845 29.2573 -8.70757
LeftFoot  0.265917 -0.0316203 -0.192874
LeftToes  1.06246e-005 4.65856e-005 -8.18501e-006
150
root  29.4118 36.7949 -1.49006 -15.8955 70.329 -13.6297
RightUpLeg  13.8383 -13.4865 -2.24018
RightLeg  32.5236 -2.34616 -1.83407
RightFoot  -24.1176 0.963646 10.3699
RightToes  0.00048216 0.542163 -0.142577
Spine  13.9047 1.13707 7.15582
Spine1  13.0361 3.20669 -3.34826
HEad  5.12414 3.26575 -4.56361
LeftShoulder1  8.57388 -13.617 -43.5744
LeftArm  -14.8141 15.7208 -22.4407
LeftForeArm  41.7108 -76.9843 -54.9333
LeftHand  -0.25398 0.0180481 5.50724
RightShoulder  5.06039 9.63783 32.5635
RightArm  -3.86749 -10.2914 25.916
RightForeArm  -14.5288 74.451 52.4078
RightHand  0.737212 -10.1576 -18.7456
LeftUpLeg  -25.7864 10.1892 4.86729
LeftLeg  0.906069 24.4368 -6.89619
LeftFoot  10.6747 -1.20114 5.84738
LeftToes  1.06246e-005 4.65856e-005 -8.18501e-006
151
root  30.7487 36.4801 -1.02459 -11.5759 72.0352 -9.65738
RightUpLeg  8.8018 -14.1349 -4.9138
RightLeg  44.6971 -1.41713 -1.88296
RightFoot  -16.0017 0.471727 12.9714
RightToes  0.00048216 0.542163 -0.142577
Spine  17.6059 1.08843 3.59873
Spine1  11.4322 2.18442 -1.76837
HEad  3.00188 2.71025 -3.94151
LeftShoulder1  8.83284 -14.0632 -43.7592
LeftArm  -14.9384 12.0497 -21.906
LeftForeArm  30.3595 -74.6215 -43.6221
LeftHand  -0.25398 0.0180481 5.50724
RightShoulder  5.31816 10.0403 33.3196
RightArm  -4.54781 -7.28855 26.3517
RightForeArm  -22.5424 71.8915 42.4003
RightHand  0.676125 -10.3361 -16.8173
LeftUpLeg  -30.9939 19.2502 -2.77798
LeftLeg  9.50328 10.5307 -3.03653
LeftFoot  17.41 -2.67536 10.0808
LeftToes  1.06246e-005 4.65856e-005 -8.18501e-006
152
root  31.6848 36.3224 -0.767027 -7.0694 73.5938 -5.24776
RightUpLeg  0.19468 -14.8859 -6.91334
RightLeg  58.8433 -1.58376 -3.34531
RightFoot  -2.62656 -0.654675 8.78499
RightToes  0.00048216 0.542163 -0.142577
Spine  23.5968 0.472853 2.10559
Spine1  10.0764 1.51912 -2.3931
HEad  -0.00968275 1.69724 -4.0434
LeftShoulder1  9.21846 -14.7853 -43.8727
LeftArm  -14.8408 6.42777 -21.1522
LeftForeArm  18.7819 -70.3136 -32.1487
LeftHand  -0.25398 0.0180481 5.50724
RightShoulder  5.57149 10.5457 33.7109
RightArm  -6.19697 -3.03709 27.0969
RightForeArm  -28.6435 68.1142 33.2932
RightHand  0.615253 -10.9142 -13.9512
LeftUpLeg  -35.652 26.3749 -11.0748
LeftLeg  15.5031 0.103542 -0.0853691
LeftFoot  17.2536 -3.35997 12.7444
LeftToes  1.06246e-005 4.65856e-005 -8.18501e-006
153
root  32.3025 36.2973 -0.612093 -1.93487 73.8942 -0.786185
RightUpLeg  -10.2629 -14.9378 -7.6235
RightLeg  69.5529 -1.43067 -5.04547
RightFoot  5.6074 -0.487797 3.28897
RightToes  0.00048216 0.542163 -0.142577
Spine  29.545 0.0417311 1.73528
Spine1  10.0272 1.66035 -4.37237
HEad  -3.60332 0.456623 -4.75038
LeftShoulder1  9.56351 -15.6848 -43.3533
LeftArm  -14.61 -0.670411 -21.0111
LeftForeArm  10.1432 -64.4928 -23.6002
LeftHand  -0.25398 0.0180481 5.50724
RightShoulder  5.63477 10.9969 32.9149
RightArm  -8.20975 2.74714 28.1558
RightForeArm  -32.7215 63.1517 25.9059
RightHand  0.459504 -10.8807 -10.8467
LeftUpLeg  -37.2116 26.6219 -13.258
LeftLeg  18.3936 0.0978002 0.448061
LeftFoot  14.2014 -3.3037 14.0958
LeftToes  1.06246e-005 4.65856e-005 -8.18501e-006
154
root  32.9282 36.5673 -0.44261 0.631953 73.2351 0.0414287
RightUpLeg  -20.6589 -15.205 -6.49311
RightLeg  74.2552 -1.22335 -6.03815
RightFoot  5.3156 -0.106003 0.976624
RightToes  0.00048216 0.542163 -0.142577
Spine  33.8826 -0.22435 2.5237
Spine1  10.4825 2.19552 -5.76011
HEad  -7.20086 -0.59855 -5.50893
LeftShoulder1  9.69481 -16.5403 -41.9807
LeftArm  -14.9183 -8.20629 -22.0849
LeftForeArm  4.71742 -58.0434 -17.921
LeftHand  -0.25398 0.0180481 5.50724
RightShoulder  5.49753 11.3439 31.0713
RightArm  -9.92971 10.0905 29.2329
RightForeArm  -35.4397 56.6677 19.8126
RightHand  0.247816 -9.84444 -7.90839
LeftUpLeg  -38.0406 27.8818 -14.1526
LeftLeg  18.1518 -0.878237 -0.123504
LeftFoot  13.1573 -3.08673 13.7776
LeftToes  1.06246e-005 4.65856e-005 -8.18501e-006
155
root  33.5663 37.0059 -0.232363 0.932988 72.7934 -1.7538
RightUpLeg  -29.2049 -16.1209 -4.22403
RightLeg  72.3934 -1.36416 -5.85448
RightFoot  1.86892 -0.322522 2.9322
RightToes  0.00048216 0.542163 -0.142577
Spine  37.6086 -0.589558 3.73684
Spine1  10.8445 2.42128 -6.15834
HEad  -10.6436 -1.40465 -6.1255
LeftShoulder1  9.71754 -17.2545 -40.5143
LeftArm  -16.0861 -15.7111 -23.5117
LeftForeArm  1.52984 -51.4003 -13.9991
LeftHand  -0.25398 0.0180481 5.50724
RightShoulder  5.31687 11.6625 29.0688
RightArm  -11.3148 18.5495 29.5589
RightForeArm  -36.524 48.7725 14.9465
RightHand  0.0709645 -8.49833 -4.70892
LeftUpLeg  -38.2146 28.352 -13.6319
LeftLeg  16.5224 -1.33798 -0.963354
LeftFoot  13.9149 -2.981 12.8641
LeftToes  1.06246e-005 4.65856e-005 -8.18501e-006
156
root  34.1259 37.366 0.0147921 0.591489 73.1999 -3.85755
RightUpLeg  -35.2676 -17.2131 -1.63687
RightLeg  65.1513 -2.34264 -6.05656
RightFoot  0.613137 -0.591636 5.65305
RightToes  0.00048216 0.542163 -0.142577
Spine  41.5722 -1.30071 4.76444
Spine1  11.3066 2.30549 -6.29437
HEad  -14.0937 -2.31425 -6.64897
LeftShoulder1  9.80786 -17.9624 -39.4437
LeftArm  -17.6471 -23.1495 -24.2605
LeftForeArm  -0.547227 -44.7064 -11.1144
LeftHand  -0.25398 0.0180481 5.50724
RightShoulder  5.19895 12.0728 27.3397
RightArm  -12.8892 27.0544 28.6281
RightForeArm  -35.9823 40.5952 11.4242
RightHand  -0.0322834 -7.16169 -1.15674
LeftUpLeg  -37.684 26.5046 -11.7415
LeftLeg  15.313 0.486655 -1.43575
LeftFoot  13.9297 -2.86718 12.3544
LeftToes  1.06246e-005 4.65856e-005 -8.18501e-006
157
root  34.6793 37.649 0.317477 -0.164474 73.7988 -6.39303
RightUpLeg  -39.3558 -17.5679 1.20494
RightLeg  53.7429 -4.28149 -6.6308
RightFoot  0.735548 -0.512277 4.86408
RightToes  0.00048216 0.542163 -0.142577
Spine  45.3254 -2.16173 5.98698
Spine1  11.5888 2.31724 -6.73669
HEad  -17.388 -3.52347 -6.68974
LeftShoulder1  9.88016 -18.863 -37.9858
LeftArm  -19.1675 -30.0441 -24.644
LeftForeArm  -2.34417 -38.2613 -8.9669
LeftHand  -0.25398 0.0180481 5.50724
RightShoulder  5.13905 12.5812 25.8543
RightArm  -14.8531 34.4923 26.4884
RightForeArm  -35.1862 33.2967 9.03743
RightHand  -0.0395061 -5.36826 1.82844
LeftUpLeg  -37.454 24.4369 -9.86929
LeftLeg  14.5577 2.20717 -1.6799
LeftFoot  13.2055 -2.71029 12.0371
LeftToes  1.06246e-005 4.65856e-005 -8.18501e-006
158
root  35.2838 37.8225 0.743854 0.625581 74.3431 -7.81929
RightUpLeg  -41.7199 -17.0589 3.42003
RightLeg  38.8886 -4.65843 -4.49828
RightFoot  -0.342142 -0.412509 4.30394
RightToes  0.00048216 0.542163 -0.142577
Spine  48.4338 -2.7802 6.80126
Spine1  11.445 2.55102 -7.49785
HEad  -20.3178 -4.88442 -5.87985
LeftShoulder1  9.83195 -20.0091 -35.6802
LeftArm  -21.0942 -36.0712 -25.1217
LeftForeArm  -3.93047 -32.3597 -7.35169
LeftHand  -0.25398 0.0180481 5.50724
RightShoulder  5.07654 13.03 24.5489
RightArm  -16.854 40.6712 23.4203
RightForeArm  -35.4974 27.0642 7.39314
RightHand  0.0460585 -3.07787 3.60165
LeftUpLeg  -39.1651 24.6227 -10.2677
LeftLeg  14.953 0.918782 -1.76758
LeftFoot  12.5485 -2.526 11.5322
LeftToes  1.06246e-005 4.65856e-005 -8.18501e-006
159
root  35.9523 37.7668 1.36542 5.10895 75.9686 -5.47599
RightUpLeg  -42.448 -16.9985 3.79548
RightLeg  23.5578 -1.39897 -0.748992
RightFoot  0.125769 -0.699062 6.8211
RightToes  0.00048216 0.542163 -0.142577
Spine  50.7957 -3.20486 6.37499
Spine1  11.7107 2.40853 -7.50953
HEad  -23.1938 -6.30389 -4.78247
LeftShoulder1  9.86056 -21.2601 -33.6834
LeftArm  -24.1696 -41.9003 -24.7433
LeftForeArm  -4.95034 -26.9425 -6.04252
LeftHand  -0.25398 0.0180481 5.50724
RightShoulder  4.87003 13.2676 22.7889
RightArm  -20.386 45.9313 19.7003
RightForeArm  -35.2333 21.55 6.63896
RightHand  0.168277 -1.01993 4.74994
LeftUpLeg  -42.756 25.7669 -13.3375
LeftLeg  17.7354 -2.68966 -1.49738
LeftFoot  11.1834 -2.30106 11.1742
LeftToes  1.06246e-005 4.65856e-005 -8.18501e-006
